<?xml version="1.0" standalone="no"?>
<!DOCTYPE svg PUBLIC "-//W3C//DTD SVG 1.1//EN" "http://www.w3.org/Graphics/SVG/1.1/DTD/svg11.dtd" >
<svg xmlns="http://www.w3.org/2000/svg" xmlns:xlink="http://www.w3.org/1999/xlink" version="1.1">
<metadata></metadata>
<defs>
<font id="gfs_neohellenicregular" horiz-adv-x="1095" >
<font-face units-per-em="2048" ascent="1638" descent="-410" />
<missing-glyph horiz-adv-x="815" />
<glyph horiz-adv-x="0" />
<glyph unicode="&#xd;" horiz-adv-x="815" />
<glyph unicode=" "  horiz-adv-x="815" />
<glyph unicode="&#x09;" horiz-adv-x="815" />
<glyph unicode="&#xa0;" horiz-adv-x="815" />
<glyph unicode="!" horiz-adv-x="428" d="M141 35q0 31 21.5 52.5t52.5 21.5q29 0 51.5 -21.5t22.5 -52.5t-22.5 -52.5t-51.5 -21.5q-31 0 -52.5 21.5t-21.5 52.5zM150 1106h137q-20 -74 -21 -406q0 -229 1 -356t3 -154h-106q4 33 6 160t2 350q0 354 -22 406z" />
<glyph unicode="&#x22;" horiz-adv-x="501" d="M86 920l4 370l133 -8l-37 -362h-100zM279 920l4 370l133 -8l-37 -362h-100z" />
<glyph unicode="#" horiz-adv-x="1644" d="M121 356l22 107h336l74 354h-336l25 107h336l75 362h107l-76 -362h354l76 362h107l-76 -362h385l-25 -107h-385l-73 -354h385l-23 -107h-385l-78 -358h-106l78 358h-355l-78 -358h-106l78 358h-336zM586 463h354l74 354h-355z" />
<glyph unicode="$" horiz-adv-x="1081" d="M104 913q0 158 115 267q109 100 270 114v146h72v-142q51 0 207 -38q100 -23 111 -21v-79t2 -126h-78q-12 66 -33 80q-78 51 -209 62q0 -483 2 -484q6 8 111 -18q109 -29 182 -76q154 -96 143 -279q-10 -164 -151 -258q-125 -82 -287 -79v-134h-72v129q-123 -4 -286 56 q-57 20 -92 14q0 55 6 207h78q6 -35 57 -72q111 -80 237 -84v480q-195 57 -264 104q-121 84 -121 231zM242 936q0 -10 1 -21.5t3 -21.5q12 -74 69 -107q29 -16 174 -63v451q-106 -6 -176.5 -72t-70.5 -166zM561 102q98 -10 195 54q117 74 100 200q-12 102 -106 142 q-47 14 -94.5 28.5t-94.5 28.5v-453z" />
<glyph unicode="%" horiz-adv-x="1392" d="M84 940q0 150 51 238q57 106 182 106q248 0 236 -342q-8 -334 -236 -334q-233 0 -233 332zM201 930q0 -88 18 -139q29 -84 103 -80q118 0 118 221q2 92 -16 147q-27 86 -105 82q-115 -2 -118 -231zM391 -180l483 1505h95l-488 -1505h-90zM838 317q0 150 51 238 q57 106 182 107q248 -1 236 -343q-8 -334 -236 -333q-233 0 -233 331zM954 307q0 -88 19 -139q29 -84 102 -80q119 0 119 221q2 92 -16 148q-27 86 -105 82q-115 -2 -119 -232z" />
<glyph unicode="&#x26;" horiz-adv-x="1138" d="M35 369q6 242 280 393q-31 43 -55 79t-41.5 67.5t-26 63.5t-8.5 68q0 125 78 201t201 76q61 0 110.5 -21.5t85 -57.5t54 -83t18.5 -100q0 -109 -52 -183.5t-169 -142.5l289 -369q14 27 23 51.5t13.5 51t7.5 57.5t5 70h129q-8 -100 -28.5 -183t-55.5 -153l207 -254h-176 l-115 143q-57 -78 -159.5 -123t-217.5 -45q-92 0 -167 29t-127 80t-78.5 124t-24.5 161zM170 336q10 -111 84 -175.5t182 -64.5q78 0 159 42.5t128 103.5l-336 422q-233 -109 -217 -328zM309 1047q0 -66 32 -112t95 -118q168 76 168 223q0 29 -9 58.5t-26.5 53.5t-44 38 t-63.5 14q-61 0 -106.5 -46t-45.5 -111z" />
<glyph unicode="'" horiz-adv-x="354" d="M109 920l4 370l133 -8l-37 -362h-100z" />
<glyph unicode="(" horiz-adv-x="608" d="M45 418q0 254 96 487q66 150 242 426q94 0 144.5 -1t60.5 -3q-49 -68 -100.5 -136.5t-96.5 -136t-82 -135t-57 -131.5q-27 -78 -41 -168t-16 -194q-6 -225 114 -463q35 -66 104 -173t175 -257h-197q-186 285 -246 422q-100 221 -100 463z" />
<glyph unicode=")" horiz-adv-x="608" d="M45 -463q49 68 99.5 136.5t95.5 137t80.5 135t58.5 130.5q27 78 41 168t16 194q6 225 -114 463q-68 131 -277 430h195q94 -143 155.5 -248.5t91.5 -173.5q101 -221 101 -463q0 -258 -99 -485q-61 -150 -241 -428q-182 0 -203 4z" />
<glyph unicode="*" horiz-adv-x="1011" d="M197 727q53 12 90 31q10 4 50 26.5t107 61.5q-70 41 -110.5 63.5t-50.5 28.5q-43 20 -86 25l53 98q57 -59 229 -154q2 156 0 187q-2 23 -7 45t-13 43h110q-23 -66 -18 -277q66 37 106.5 60.5t55.5 33.5q39 23 63 62l60 -98q-55 -12 -93 -31q-10 -4 -50 -26.5t-109 -63.5 q70 -39 110.5 -61.5t55.5 -28.5q37 -21 86 -27l-56 -98q-27 29 -84 67.5t-145 89.5q0 -225 20 -278h-110q16 49 20 96q4 29 0 182q-66 -37 -106.5 -60.5t-55.5 -33.5q-37 -27 -65 -63z" />
<glyph unicode="+" horiz-adv-x="1134" d="M92 438v101h420v440h109v-440h452l2 -101h-454v-438h-109v438h-420z" />
<glyph unicode="," horiz-adv-x="391" d="M88 -160q84 16 84 160h-57v137h135v-125q0 -205 -162 -243v71z" />
<glyph unicode="-" horiz-adv-x="641" d="M88 375v110h467v-110h-467z" />
<glyph unicode="." horiz-adv-x="534" d="M172 63q0 35 25.5 62t60.5 27t61.5 -27t26.5 -62q0 -33 -26.5 -58t-61.5 -25q-33 0 -59.5 25.5t-26.5 57.5z" />
<glyph unicode="/" horiz-adv-x="661" d="M12 -180l484 1505h135l-488 -1505h-131z" />
<glyph unicode="0" d="M80 631q0 297 102 477q119 211 365 211q254 0 375 -195q106 -174 98 -487q-23 -670 -471 -670q-469 0 -469 664zM227 631q-4 -240 56 -367q76 -168 264 -168q317 5 321 537q4 268 -55 397q-78 172 -270 164q-313 -16 -316 -563z" />
<glyph unicode="1" d="M387 1118v53q78 25 133 103q84 0 80 -35q-2 -16 -2 -167.5v-444.5v-367q4 -188 20 -260h-178q23 78 25 260v379v338t-2 141q-29 4 -76 0z" />
<glyph unicode="2" d="M152 0v72q29 29 96 99.5t178 182.5q133 133 174 181q104 123 148 237q37 92 36 172q0 115 -75 184q-66 61 -162 62q-137 2 -205 -105q-41 -66 -49 -151h-121q2 41 16 86q29 102 84 164q92 102 281 112q164 6 262 -92q74 -74 96 -192q6 -35 7 -70q0 -244 -283 -541 l-277 -290h355q100 0 114 20q16 23 19 59h94q-8 -116 0 -198q-141 6 -246.5 9t-179.5 1q-53 2 -143 2t-219 -4z" />
<glyph unicode="3" d="M201 39l45 129q76 -33 86 -35q84 -29 168 -31q129 -2 213 62.5t92 181.5q8 137 -98 225q-96 78 -220 72q-2 4 -2 131q113 -8 189 57q74 66 78 156q4 92 -52.5 145.5t-142.5 51.5q-82 -4 -145 -56q-72 -59 -99 -155l-104 43q29 119 117 195.5t211 84.5q166 10 262 -79 q82 -80 86 -203q2 -102 -60 -187q-68 -90 -178 -110q150 -35 223 -133q74 -93 74 -226q0 -158 -113 -264q-127 -121 -337 -110q-193 10 -293 55z" />
<glyph unicode="4" d="M158 332v96q70 100 132 190.5t118 169.5q131 193 210.5 318t112.5 184q2 2 39 0q39 0 41 -2v-217v-405v-220q23 -2 56.5 2.5t74.5 12.5v-148q-31 8 -63.5 11.5t-67.5 5.5v-211q2 -20 6 -49t14 -70h-178q12 43 18.5 70.5t8.5 38.5v223q-195 2 -522 0zM309 442 q135 -2 226.5 -3t142.5 1v333t2 206q-70 -94 -162 -227.5t-209 -309.5z" />
<glyph unicode="5" d="M133 4l43 129q135 -47 246 -47q154 0 262 96q106 94 111 250q2 156 -111 254q-121 102 -326 102q-20 0 -39.5 -1t-39.5 -3q-33 -8 -41 -47h-86q0 492 -15 549q160 -10 289 -12q82 -2 187.5 1t236.5 9q-8 -63 0 -168h-102q-2 23 -6.5 27t-10.5 10q-12 16 -131 16h-332 q-4 -66 -4 -130t2 -128q23 2 45.5 3t44.5 1q287 0 441 -147q131 -129 131 -326q0 -160 -86 -284q-90 -135 -246 -174q-74 -20 -178 -21q-150 0 -285 41z" />
<glyph unicode="6" d="M150 412q4 76 20 142.5t43 125.5q51 117 182 274q156 195 414 361l82 -96q-27 -16 -53.5 -33t-53.5 -35q-63 -47 -119.5 -97t-109.5 -104q-170 -186 -242 -358q106 111 269 110q176 0 280 -110q100 -100 96 -258q-2 -150 -102 -256q-109 -117 -287 -117q-207 0 -319 123 q-115 127 -100 328zM268 367q0 -135 83 -215t227 -82q55 0 101 19.5t80 55t53.5 84t21.5 103.5t-15.5 102t-51.5 82t-82 54.5t-110 19.5q-43 0 -86 -12.5t-82.5 -34t-73.5 -50t-59 -59.5q-6 -35 -6 -67z" />
<glyph unicode="7" d="M162 1061q10 152 0 223q131 -4 235.5 -7t186.5 -3q127 0 415 12v-78q-240 -307 -354 -581q-59 -145 -92 -301t-41 -326q-154 -4 -154 0q39 330 115 545q53 156 140 309.5t206 306.5h-409q-106 0 -127 -26q-16 -18 -19 -74h-102z" />
<glyph unicode="8" d="M141 365q0 139 86 247q86 109 226 115q-111 0 -181 80q-66 76 -65 178q-2 125 86 213q98 100 266 98q166 -4 256 -94q82 -82 82 -201q0 -111 -70 -192q-70 -82 -176 -82q139 0 230 -117q86 -109 84 -256q0 -152 -99 -252q-111 -117 -307 -116q-203 -2 -317 118 q-100 102 -101 261zM276 369q-2 -113 68 -189q76 -82 217 -86q125 0 199 80q67 71 71 180q4 123 -63 205q-76 94 -203 94q-131 0 -213 -88q-72 -82 -76 -196zM330 993q0 -86 57 -137q63 -61 174 -61q100 0 160 65q55 60 53 146q0 78 -53 131q-57 57 -162 57q-109 0 -172 -64 q-57 -55 -57 -137z" />
<glyph unicode="9" d="M143 934q6 150 107 250q106 111 287 110q205 0 319 -127q116 -126 102 -327q-6 -74 -22 -142.5t-48 -137t-79 -139.5t-111 -151q-100 -123 -227 -217q-43 -29 -86 -56.5t-86 -55.5l-84 96q57 31 117 67q141 90 239 199q82 88 139.5 177t90.5 184q-109 -111 -277 -111 q-90 0 -161.5 27.5t-122 79t-76 121t-21.5 153.5zM272 922q-4 -104 62 -177q70 -80 196 -79q82 0 172 47q86 47 129 108q2 14 3.5 28.5t1.5 29.5q0 135 -78 220t-221 85q-117 0 -191 -80q-70 -76 -74 -182z" />
<glyph unicode=":" horiz-adv-x="499" d="M147 14q0 37 26 62.5t60 25.5q35 0 62 -25.5t27 -62.5q0 -33 -27 -59.5t-62 -26.5q-33 0 -59.5 26t-26.5 60zM147 743q0 35 27 60.5t59 25.5q35 0 62 -26.5t27 -59.5q0 -37 -27 -62.5t-62 -25.5q-33 0 -59.5 26t-26.5 62z" />
<glyph unicode=";" horiz-adv-x="532" d="M186 68q0 37 28 63.5t65 26.5q35 0 61.5 -26.5t24.5 -65.5q-10 -201 -162 -234v72q70 14 76 71q-35 0 -64 27t-29 66zM193 727q0 66 86 66t86 -66q0 -35 -26 -60.5t-60 -25.5q-33 0 -59.5 25.5t-26.5 60.5z" />
<glyph unicode="&#x3c;" horiz-adv-x="966" d="M250 528v95l596 596l-4 -156l-480 -485l480 -486l4 -168z" />
<glyph unicode="=" horiz-adv-x="1613" d="M242 289v102h1130v-102h-1130zM242 645v100h1130v-100h-1130z" />
<glyph unicode="&#x3e;" horiz-adv-x="966" d="M133 -76l4 168l484 486l-484 485l-4 156l598 -596v-95z" />
<glyph unicode="?" horiz-adv-x="872" d="M127 1229q33 -8 141 28q37 12 63.5 20.5t48 13.5t39 7t38.5 2q70 0 129 -16t103 -55t68.5 -102.5t24.5 -155.5q0 -264 -233 -439q-82 -61 -119 -108q-45 -66 -53 -168q0 4 1 -7t3 -34h-133q0 14 2 25q0 162 127 288q39 33 77 66t76 65q86 84 121 226q10 47 11 86 q0 98 -52 162q-59 72 -172 71q-113 0 -178 -84q-35 -45 -45 -100l-82 2q-6 150 -6 207zM238 53q0 31 21.5 52.5t51.5 21.5q29 0 51.5 -21.5t22.5 -52.5t-22.5 -52t-51.5 -21q-31 0 -52 21.5t-21 51.5z" />
<glyph unicode="@" horiz-adv-x="1914" d="M113 348q0 389 276 629q256 219 615 219q352 0 571 -201q231 -215 213 -592q-12 -227 -125 -346q-100 -104 -248 -98q-104 4 -177 57.5t-93 145.5q-45 -90 -139.5 -145.5t-198.5 -55.5q-188 0 -297 127q-100 113 -100 293q0 158 102 278q113 131 295 132q227 0 342 -203 q27 143 190 227l13 -127q-139 -127 -140 -309q-4 -262 201 -293q78 -12 143 59q74 82 86 242q2 16 2.5 34.5t0.5 35.5q0 279 -175 444q-172 166 -475 166t-514 -195q-217 -203 -217 -528q0 -276 160 -461q123 -141 324 -213q156 -53 256 -45q0 -129 -9 -123q-379 0 -622 224 q-260 233 -260 622zM541 381q0 -68 19.5 -123t54 -95t84 -61.5t108.5 -21.5q117 0 201 84t84 215q0 117 -88 203q-86 88 -201 88q-100 0 -182 -86q-80 -84 -80 -203z" />
<glyph unicode="A" horiz-adv-x="1255" d="M47 0q100 199 510 1296h145q63 -174 120 -324.5t106 -279.5q229 -616 274 -692h-186q-14 66 -142 420h-514q-131 -334 -149 -420h-164zM403 545h428q-57 162 -107 315.5t-95 300.5q-29 -88 -84.5 -240.5t-141.5 -375.5z" />
<glyph unicode="B" horiz-adv-x="1200" d="M176 -2q20 76 25 258v592t-2 258t-7.5 90t-15.5 82h469q389 0 389 -330q0 -109 -78 -192q-68 -72 -161 -92q94 -23 178 -99q96 -96 96 -217q0 -190 -151 -282q-111 -68 -269 -68h-473zM322 111h317h2q293 0 293 231v6q-4 145 -150 219q-94 47 -163 47h-299v-503zM322 711 h309q76 0 147 30q133 60 133 207q0 145 -131 201q-70 29 -149 29l-309 -2v-465z" />
<glyph unicode="C" horiz-adv-x="1091" d="M90 631q0 283 148 467q159 200 429 200h3q84 0 178 -22q88 -19 104 -19h2q0 -27 4.5 -74.5t12.5 -119.5h-97q-4 29 -24 72q-49 43 -175 43h-11q-203 -6 -324 -172q-109 -156 -109 -377q0 -207 121 -363q131 -166 332 -166q123 0 168 45q20 20 33 72h96q-8 -70 -11 -117 t-3 -73h-2q-17 0 -105 -21q-94 -26 -189 -26h-7q-256 0 -418 202q-156 188 -156 449z" />
<glyph unicode="D" horiz-adv-x="1155" d="M80 0q14 55 18 154q6 98 6 485v275.5t-2 166.5t-7 104.5t-15 86.5h391q297 0 459 -180q153 -172 153 -471q0 -272 -178 -447q-174 -174 -448 -174h-377zM238 657q0 -166 6 -524h211q213 0 344 137q133 140 133 351q0 507 -471 507h-2h-219v-235q-2 -78 -2 -137.5v-98.5z " />
<glyph unicode="E" horiz-adv-x="1075" d="M158 -12q20 68 20 676q0 551 -20 618q137 -8 360 -12q33 -1 69 -1q55 0 119 2q106 3 236 9q-5 -36 -5 -85t5 -112h-102l-4 33q0 6 -13 19q-8 14 -131 14h-379q-2 -95 -2 -199t2 -217q444 0 512 29v-176q-78 25 -370 25q-66 0 -142 -1q-1 -114 -1 -235.5t1 -251.5h432 q111 0 129 24q12 18 19 64h100q-5 -76 -5 -131t5 -90q-131 6 -235 9q-63 2 -118 2q-36 0 -69 -1q-63 -2 -166.5 -5t-246.5 -7z" />
<glyph unicode="F" horiz-adv-x="962" d="M158 1294q66 0 180 -6q129 -6 180 -6q53 -1 106 -1l106 1q106 2 212 10v-196h-102q0 45 -25 57q-14 8 -70 8h-432v-428q162 0 261.5 1t136.5 3q76 6 114 25v-170q-18 4 -50 8t-79 8q-117 6 -214 6t-175 -4v-153.5t2 -173.5t8.5 -162t20.5 -121h-178q12 47 18 119 q4 53 5 121v48q0 49 -1 103q-2 147 -3 215t-1 58v450q-4 119 -20 180z" />
<glyph unicode="G" horiz-adv-x="1079" d="M90 631q0 279 150 465q159 202 429 202h3q90 0 174 -18q18 -2 65 -18q31 -10 43 -7q4 -92 19 -192h-96q-14 72 -70 100q-41 18 -123 19q-213 0 -338 -178q-113 -162 -113 -381q0 -203 121 -359q133 -164 330 -164q86 0 129 17q66 25 64 100l-3 248h-30q-68 0 -82 -6 q-33 -8 -37 -58h-100q4 59 4 107t-4 84q113 -2 208 -3h62q60 0 115 1v-338v-25q-1 0 -2 84q4 -165 18 -278h-14q-68 0 -178 -33q-66 -18 -170 -18q-262 0 -422 198q-152 186 -152 451z" />
<glyph unicode="H" horiz-adv-x="1300" d="M152 0q23 78 24 262v586t-2 256t-7 88t-15 80h182q-27 -99 -27 -380q0 -80 2 -175h723q1 65 1 123q0 144 -4 244q-5 138 -19 188h176q-10 -39 -15.5 -103.5t-7.5 -156.5v-377q0 -541 25 -635h-178q14 50 19 196q4 104 4 258q0 61 -1 130h-721q0 -494 23 -584h-182z" />
<glyph unicode="I" horiz-adv-x="471" d="M158 0q23 78 24 262v586t-2 256t-7 88t-15 80h180q-10 -39 -15.5 -103.5t-7.5 -156.5v-377v-371q4 -193 21 -264h-178z" />
<glyph unicode="J" horiz-adv-x="481" d="M29 0q-2 75 -2 111.5t2 35.5l73 -2q2 -27 37 -45q27 -14 58 -14q59 0 63 53q4 49 6 232.5t2 507.5q0 344 -14 395h162q-14 -51 -15 -397q0 -754 -20 -809q-35 -92 -180 -93q-31 0 -54.5 5.5t-43 11.5t-38 9t-36.5 -1z" />
<glyph unicode="K" horiz-adv-x="1208" d="M133 0q23 78 25 262v588t-2 256t-7.5 89t-15.5 81h182q-24 -92 -24 -592v-41v-375q2 -98 7 -163.5t15 -104.5h-180zM295 651l252 254q94 94 147.5 149.5t69.5 71.5q72 84 76 150h256q-66 -49 -195 -184q-66 -70 -133.5 -137.5t-132.5 -135.5q-27 -27 -65 -63.5t-85 -83.5 q131 -109 215 -185q299 -280 430 -487h-223q-29 88 -94 168q-29 35 -82 90t-131 131q-186 180 -305 262z" />
<glyph unicode="L" horiz-adv-x="1085" d="M158 -12q20 68 20 678v376q0 41 0.5 40.5t1.5 -56.5q-2 86 -7 147.5t-15 100.5h180q-10 -39 -15.5 -105.5t-7.5 -164.5v-367l-2 -520h432q111 0 129 24q12 18 19 64h100q-3 -74 -3 -127.5t3 -87.5q-131 6 -235 9q-63 2 -118 2q-36 0 -69 -1q-63 -2 -166.5 -5t-246.5 -7z " />
<glyph unicode="M" horiz-adv-x="1562" d="M143 1276h201l440 -842l449 842h207q-31 -57 -41 -256q-2 -39 -3 -135.5t-1 -251.5v-375q2 -92 7 -155.5t15 -102.5h-172q10 39 15.5 103.5t7.5 156.5v369v504q-23 -94 -143.5 -331t-338.5 -620q-127 217 -221 393q-225 420 -258 547v-493v-369q2 -94 7 -158.5t16 -101.5 h-166q10 39 15 102.5t7 155.5v375v252t-2 135q-10 199 -41 256z" />
<glyph unicode="N" horiz-adv-x="1302" d="M129 1276q98 -1 146 -1t47 1q90 -123 170.5 -236.5t154.5 -220.5q168 -244 263.5 -396.5t121.5 -215.5v430v321q0 67 1 66l1 -10q-2 184 -24 262h174q-10 -39 -15.5 -103.5t-7.5 -158.5l1 20q1 0 1 -59v-340v-635h-119q-94 135 -178 256t-155 227q-174 256 -277.5 412 t-138.5 217v-477v-371q2 -94 7 -159.5t15 -104.5h-170q10 39 15.5 103.5t7.5 158.5v377v252t-2 133q-10 197 -39 252z" />
<glyph unicode="O" horiz-adv-x="1427" d="M125 623q0 287 149 473q161 202 444 202h3q287 0 450 -202q146 -186 146 -473q0 -264 -164 -451q-171 -192 -429 -192h-3q-270 0 -436 192q-160 180 -160 451zM270 621q0 -205 121 -351q128 -157 327 -157h3q205 0 330 155q118 144 118 355q0 242 -108 387 q-118 155 -339 155h-3q-209 0 -334 -172q-115 -156 -115 -372z" />
<glyph unicode="P" horiz-adv-x="1046" d="M158 0q10 39 15 101.5t7 154.5v377v377q-2 96 -7 161.5t-15 104.5h448q117 0 225 -68q152 -97 152 -290q0 -190 -147 -291q-104 -70 -232 -80q-18 0 -53 -1t-77 -2t-83 -1h-72q0 -29 -1 -46.5t-1 -46t-1 -83t-1 -154.5q2 -70 7.5 -122t15.5 -91h-180zM319 666 q82 -1 141 -1h53q71 1 91 5q236 35 236 244q0 108 -58 165q-41 43 -106 62q-18 4 -36.5 6t-35.5 6q-47 6 -199 6h-83z" />
<glyph unicode="Q" horiz-adv-x="1429" d="M125 623q0 287 149 473q161 202 444 202h3q287 0 450 -202q145 -186 146 -473q0 -207 -109 -377q-109 -168 -286 -232l12 -22q6 -14 26.5 -47t55.5 -84q68 -101 80 -113h-219q-2 10 -11.5 41t-29.5 80l-58 113q-14 -2 -28.5 -2h-28.5q-270 0 -436 192q-160 180 -160 451z M270 621q0 -205 121 -351q128 -157 327 -157h3q205 0 330 155q118 144 118 355q0 242 -108 387q-118 155 -339 155h-3q-209 0 -334 -172q-115 -156 -115 -372z" />
<glyph unicode="R" horiz-adv-x="1105" d="M158 0q10 39 15 101.5t7 154.5v377v377q-2 96 -7 161.5t-15 104.5h448q76 0 144.5 -18.5t121 -58.5t82 -104.5t29.5 -156.5q0 -274 -305 -340q250 -84 350 -598h-180q2 8 3 15.5t1 17.5q0 131 -80 295q-92 197 -231 239q-53 16 -146 19q-20 -2 -39.5 -2t-40.5 -2v-349 q2 -78 7.5 -136t15.5 -97h-180zM319 707q82 -1 141 -1h53q71 1 91 5q115 16 174.5 65t61.5 162q0 57 -17.5 97t-48.5 64.5t-75 37t-95 16.5q-47 6 -199 6h-83z" />
<glyph unicode="S" horiz-adv-x="1034" d="M209 1214q118 84 300 84h17q53 0 207 -38q92 -21 109 -21h2v-79t2 -126h-78q-12 66 -33 80q-94 63 -231 64q-299 0 -299 -242v-16q6 -154 321 -215q439 -87 439 -366v-17q-8 -199 -203 -285q-125 -59 -307 -59q-29 0 -60 2q-84 2 -227 55q-47 17 -74 17q-10 0 -18 -3 q0 55 6 207h78q6 -35 57 -72q117 -86 260 -86q137 0 238 58q108 62 108 168q0 15 -2 30q-8 80 -78 129q-49 39 -153 70q-45 12 -90 24.5t-90 24.5q-152 47 -226 98q-114 89 -114 232q0 184 139 282z" />
<glyph unicode="T" horiz-adv-x="1310" d="M88 1069q5 64 5 116t-5 91h1149q-3 -34 -3 -86t3 -123h-102q-2 51 -17 76q-24 24 -121 24h-8h-262v-551v-328q0 -58 -1 -57l-1 19q2 -88 7 -150.5t16 -99.5h-179q23 78 25 250v366v553h-258q-102 0 -127 -24q-14 -25 -16 -76h-105z" />
<glyph unicode="U" horiz-adv-x="1300" d="M115 1272h188q-16 -70 -22 -314q-2 -125 -3.5 -235.5t-1.5 -208.5q0 -401 383 -401q178 0 277 106q108 120 108 392v5q0 225 -6 408q-2 92 -7 153.5t-13 94.5h180q-22 -80 -22 -432v-31v-50t2 -69t2 -67.5v-47.5q0 -264 -119 -415q-145 -184 -406 -185q-262 0 -405 179 q-115 145 -115 383v-1l1 64q1 74 3 231q1 57 1 109v51q-1 74 -5 135q-6 100 -20 146z" />
<glyph unicode="V" horiz-adv-x="1216" d="M49 1272h160q10 -39 54 -164t122 -338q94 -250 152.5 -409.5t80.5 -231.5q10 29 64.5 187.5t159.5 451.5q147 420 166 504h176q-88 -154 -492 -1276h-153q-12 39 -63.5 176t-143.5 379q-111 293 -180.5 471t-102.5 250z" />
<glyph unicode="W" horiz-adv-x="1945" d="M59 1278h160q45 -156 131 -440.5t217 -702.5q154 475 338 1143h164q51 -188 338 -1143q129 420 211 704.5t117 438.5h176q-27 -70 -133.5 -386.5t-296.5 -889.5h-154q-53 166 -138 426t-204 623q-59 -180 -145 -440.5t-199 -608.5h-154q-88 262 -193.5 579.5 t-234.5 696.5z" />
<glyph unicode="X" horiz-adv-x="1310" d="M16 0q33 70 580 684q-63 78 -118.5 146.5t-102.5 127.5q-117 141 -187.5 220t-97.5 98h232q14 -37 114 -184l244 -320l242 313q59 80 102 191h211q-47 -55 -165 -203.5t-308 -390.5q78 -92 143.5 -171t120.5 -146q264 -326 270 -365h-213q-14 33 -39.5 83t-66.5 116 l-305 399l-326 -399q-68 -80 -113 -199h-217z" />
<glyph unicode="Y" horiz-adv-x="1075" d="M29 1276h237v-6q0 -55 64 -156l227 -362l223 360q68 111 72 164h207q-35 -37 -94.5 -119t-147.5 -211q-51 -78 -102 -155.5t-103 -155.5q2 -94 2 -186.5t2 -186.5q4 -190 21 -262h-180q23 78 24 260v375q-57 88 -114.5 175t-114.5 175q-86 129 -141.5 200.5t-81.5 90.5z " />
<glyph unicode="Z" horiz-adv-x="1198" d="M127 -12v75l762 1082h-467q-119 0 -131 -15q-10 -14 -15 -51h-104q4 62 4 112t-4 87q130 -6 236 -9q63 -2 119 -2q37 0 69 1q64 -1 145 -1h85q134 1 309 5l-816 -1155h539q111 0 129 26q16 20 17 62h104q-5 -70 -5 -126.5t5 -98.5q-231 13 -382 13q-38 0 -71 -1 q-61 1 -140 1h-83q-131 -1 -305 -5z" />
<glyph unicode="[" horiz-adv-x="729" d="M180 -465v1800h475l-2 -92h-356v-1597h358v-111h-475z" />
<glyph unicode="\" horiz-adv-x="661" d="M12 1325h135l484 -1505h-131z" />
<glyph unicode="]" horiz-adv-x="788" d="M70 -358h360v1599h-360v94h475v-1800h-475v107z" />
<glyph unicode="^" horiz-adv-x="1024" d="M100 500l363 782h98l361 -782h-127l-283 637l-283 -637h-129z" />
<glyph unicode="_" horiz-adv-x="993" d="M0 -150h993v-98h-993v98z" />
<glyph unicode="`" horiz-adv-x="1105" d="M340 1249l139 47l90 -356l-104 -33z" />
<glyph unicode="a" horiz-adv-x="874" d="M82 205q0 102 70 170q66 61 174 78q41 4 98 13l133 21v103q-2 129 -135 129h-16q-37 -2 -79 -15.5t-80 -34t-72 -47t-54 -55.5v123q106 125 289 129h8q111 0 180 -53q84 -66 84 -195v-421q0 -47 35 -48q12 0 96 62v-111q-67 -71 -118 -71h-1q-106 0 -131 100 q-94 -98 -256 -102q-49 0 -90 17t-71.5 48t-47 72t-16.5 88zM201 221q0 -57 35.5 -95t93.5 -38q43 0 121 31q79 34 112 65v197q-31 -4 -83 -11.5t-124 -17.5q-68 -10 -111.5 -47t-43.5 -84z" />
<glyph unicode="b" horiz-adv-x="882" d="M86 1229h139q-4 -70 -7 -177.5t-3 -256.5v-80q74 92 221 92q186 0 299 -113t113 -297q0 -186 -119 -299q-120 -114 -290 -114h-3q-160 0 -221 88l8 -72h-133q0 23 1 60.5t3 89.5v63t2 184t2 185.5v64.5v146v77q0 259 -12 359zM214 436q1 -100 5 -241q61 -98 221 -99 q123 0 202 82t81 219q0 63 -19.5 118.5t-57.5 96.5t-90 63.5t-116 22.5q-139 0 -225 -98q-1 -42 -1 -101v-63z" />
<glyph unicode="c" horiz-adv-x="753" d="M68 401q4 160 100 273q100 113 262 131q31 3 62 3l172 -24l-19 -108q-82 22 -147 22h-6q-72 0 -130 -22q-164 -63 -167 -281q0 -121 84 -211q84 -86 210 -88q76 0 173 43l34 -104q-27 -10 -46 -19.5t-36 -13.5q-55 -16 -129 -18h-23q-174 0 -286 116q-108 118 -108 292v9 z" />
<glyph unicode="d" horiz-adv-x="937" d="M68 401q2 174 116 289q117 117 301 117q168 0 228 -96l2 82q2 73 2 139q0 173 -15 297h140q-4 -70 -7.5 -177.5t-3.5 -256.5v-80v-106.5t3 -143.5q2 -96 3 -169t1 -124v-119q2 -29 2 -43t0 -10h-133l4 86q-84 -102 -226 -102q-188 0 -307 122q-110 112 -110 280v15z M190 397q0 -125 86 -213q88 -88 213 -88q141 0 222 107q2 96 3 191t1 194q-85 110 -226 110q-129 0 -215 -86q-84 -88 -84 -215z" />
<glyph unicode="e" horiz-adv-x="890" d="M68 399q2 172 110 289q107 115 273 119h6q179 0 274 -115q84 -107 84 -281v-8h-620v-8v-5q0 -127 92 -214q86 -80 209 -84h5q120 0 214 94l59 -108q-160 -88 -289 -94h-23q-174 0 -286 116q-108 118 -108 290v9zM215 512h451q-23 184 -217 184q-76 0 -139.5 -49 t-94.5 -135z" />
<glyph unicode="f" horiz-adv-x="604" d="M12 700v119q28 -10 106 -10h27v31q0 233 29 297q51 114 200 114h13q59 0 115 -26q35 -16 60.5 -25.5t41.5 -13.5v-160q-122 122 -218 122q-8 0 -15 -1q-76 -6 -95 -98q-8 -39 -8 -238q227 10 246 23v-140q-29 14 -246 19v-74q0 -276 1 -435t3 -206h-137q12 104 12 637v78 q-109 -4 -135 -13z" />
<glyph unicode="g" horiz-adv-x="964" d="M68 401q2 174 116 289q117 117 301 117q195 0 279 -135v57.5t-2 65.5h137q-4 -96 -6 -236.5t-2 -329.5q0 -367 -19 -440q-29 -109 -129 -172q-102 -66 -227 -66q-143 0 -248 48q-14 8 -38.5 17t-59.5 22l76 124q92 -86 229 -100q10 -2 18.5 -2h18.5q49 0 94 16.5t79 44 t54.5 66.5t24.5 84q2 63 6 260q-96 -147 -285 -147q-188 0 -307 122q-110 112 -110 280v15zM190 397q0 -125 86 -213q88 -88 213 -88q117 0 192 73t89 189v93q-16 111 -92 179t-189 68q-129 0 -215 -86q-84 -88 -84 -215z" />
<glyph unicode="h" horiz-adv-x="866" d="M117 1229h139q-4 -70 -7 -177.5t-3 -256.5v-80q124 112 273 112h3q141 0 205 -88q70 -96 70 -338v-241q2 -74 3 -120t1 -40h-139v116.5t2 123.5v163q-2 72 -7.5 124.5t-15.5 84.5q-37 109 -137 111h-7q-100 0 -180 -55q-16 -16 -34.5 -31.5t-34.5 -32.5q-2 -41 -2 -98 v-135q2 -53 2 -114.5t2 -131.5q2 -66 3 -96.5t1 -28.5h-133q4 106 6 280.5t2 415.5v97q0 334 -12 436z" />
<glyph unicode="i" horiz-adv-x="385" d="M109 1042q0 39 29.5 69t66.5 30q39 0 69.5 -30t30.5 -69q0 -37 -30.5 -66.5t-69.5 -29.5q-37 0 -66.5 29t-29.5 67zM133 -2q9 210 9 409t-9 386h135q-7 -194 -7 -393t7 -402h-135z" />
<glyph unicode="j" horiz-adv-x="385" d="M-98 -406q8 16 21.5 42t33.5 65q43 -49 85 -49h3q74 6 92 96q6 31 6 479q0 193 -2 333t-6 233h137q-4 -35 -6 -175.5t-2 -388.5v-346q-6 -162 -31 -217q-53 -115 -188 -115q-29 0 -47 7q-31 16 -96 36zM109 1042q0 39 28.5 69t67.5 30t69.5 -30t30.5 -69 q0 -37 -30.5 -66.5t-69.5 -29.5q-37 0 -66.5 29t-29.5 67z" />
<glyph unicode="k" horiz-adv-x="821" d="M76 1229h139q-4 -70 -7 -177.5t-3 -256.5v-404q61 53 176 159.5t283 266.5l84 -80l-332 -299q53 -51 150.5 -145.5t240.5 -233.5l-84 -84l-395 390l-129 -99q-2 -60 -2 -95t2 -44q6 -61 53 -107q-64 -40 -128 -40h-3q-16 0 -23 2q-18 6 -18 170q0 78 6 303q6 223 6 331 q0 154 -4 264.5t-12 178.5z" />
<glyph unicode="l" horiz-adv-x="376" d="M131 1229h139q-4 -88 -6 -215t-4 -299q0 -61 1 -167t3 -259q2 -156 3 -227.5t1 -61.5h-133q4 106 6 280.5t2 415.5q1 71 1 135q0 256 -13 398z" />
<glyph unicode="m" horiz-adv-x="1411" d="M121 0q4 106 6 280.5t2 415.5q-2 12 -2 37t-2 62h125l-2 -76q101 108 251 108h3q166 0 225 -122q122 122 294 122h3q143 0 205 -88q69 -95 69 -331v-7v-138t2 -103v-68t3 -55v-37h-140v116.5t2 123.5q2 46 2 87t-2 76q-2 72 -7 124.5t-15 84.5q-33 106 -137 111h-8 q-95 0 -169 -49q-2 -2 -19 -17.5t-52 -46.5q18 -84 18 -209v-241q2 -74 3 -120t1 -40h-139v116.5t2 123.5q2 46 2 87t-2 76q-2 72 -7 124.5t-15 84.5q-37 109 -138 111h-7q-97 0 -165 -53q-14 -16 -28.5 -30.5t-28.5 -31.5v-608h-133z" />
<glyph unicode="n" horiz-adv-x="923" d="M123 0q6 211 6 698v37t-2 60l125 2l-2 -97q125 109 274 109q141 0 205 -88q70 -96 70 -338v-127t2 -137q2 -70 2 -99.5t0 -19.5h-139v116.5t2 114.5q1 41 1 79.5t-1 74.5q-2 72 -7.5 124t-15.5 85q-37 109 -137 111h-7q-100 0 -175 -54l-68 -61v-590h-133z" />
<glyph unicode="o" horiz-adv-x="964" d="M68 401q2 174 116 289q117 117 301 117q186 0 299 -113t113 -297q0 -186 -119 -299q-120 -114 -290 -114h-3q-188 0 -307 122q-110 112 -110 280v15zM190 397q0 -125 86 -213q88 -88 213 -88q123 0 202 82t81 219q0 63 -19.5 118.5t-57.5 96.5t-90 63.5t-116 22.5 q-129 0 -215 -86q-84 -88 -84 -215z" />
<glyph unicode="p" horiz-adv-x="882" d="M86 -455q12 99 12 370v81v145q-2 129 -2 255t-2 251q-2 47 -2 84t-2 66h133l-8 -72q29 41 89.5 64.5t131.5 23.5q172 0 293 -115q119 -113 119 -299q0 -188 -113 -303q-114 -114 -296 -114h-3q-147 0 -221 92v-80q0 -156 3 -267.5t7 -181.5h-139zM214 360v-64 q0 -61 1 -108q86 -98 225 -98q125 0 205 90q78 88 78 213v6q-2 137 -81 219t-202 82q-133 0 -221 -98q-4 -139 -5 -242z" />
<glyph unicode="q" horiz-adv-x="937" d="M68 393v6q0 170 112 291q117 121 305 121q141 0 226 -102l-4 86h133q0 4 0 -10.5t-2 -43.5v-118q0 -51 -1 -124t-3 -171q-2 -84 -2.5 -146.5t-0.5 -107.5v-80q0 -150 3.5 -261.5t7.5 -187.5h-140q15 129 15 314q0 65 -2 137l-2 82q-78 -96 -228 -96q-184 0 -301 118 q-115 121 -116 293zM190 397q0 -129 84 -219q86 -88 215 -88q139 0 226 117q0 88 -1 183t-3 202q-81 106 -222 106q-123 0 -213 -90q-86 -90 -86 -211z" />
<glyph unicode="r" horiz-adv-x="530" d="M78 795h129l-2 -142q45 156 207 158q43 0 73 -14v-125q-34 26 -59 26h-2q-119 0 -178 -108q-37 -73 -37 -151v-15v-116.5t2 -149.5t3 -123t1 -35l-131 -2q3 100 3 274t-3 422q-4 29 -6 101z" />
<glyph unicode="s" horiz-adv-x="634" d="M143 754q72 59 187 59q33 0 90 -14q39 -10 62.5 -14.5t31.5 -6.5v-137q-92 55 -203 59q-45 0 -84 -24q-43 -31 -45 -76v-3q0 -70 172 -114q104 -29 168 -86q82 -70 82 -174q0 -146 -143 -209q-70 -32 -162 -32q-21 0 -43 2q-35 2 -82 12t-106 29v139q20 -14 69 -31.5 t127 -40.5q10 -2 20.5 -3t20.5 -1q68 0 119 33t57 94v7q0 73 -112 122q-41 12 -98.5 34.5t-129.5 55.5q-75 48 -75 153q0 101 77 167z" />
<glyph unicode="t" horiz-adv-x="569" d="M82 707q2 2 2 45v43h119v213l123 53v-266q198 0 200 2v-88h-200l-9 -349q-2 -106 -3 -140t-1 1q0 -112 25 -112q12 0 35.5 17t29.5 19q4 -6 12.5 -27.5t22.5 -58.5q-117 -77 -196 -77h-6q-47 4 -48 178q0 14 7 196q2 63 6 351h-119z" />
<glyph unicode="u" horiz-adv-x="929" d="M115 408v125t2 112v64.5t2 52.5q2 20 2 28.5t0 4.5h139q-2 -53 -4 -110.5t-6 -123.5q-2 -41 -3 -80v-26q0 -25 1 -49q2 -72 7 -124.5t15 -84.5q37 -109 138 -111h7q99 0 175 53l67 62q2 92 7 350q2 119 3 179.5t1 64.5h133q-4 -106 -6 -275.5t-2 -404.5q4 -4 6 -4 q6 0 16 5t20.5 11t19.5 12t13 6q4 -6 12.5 -27.5t22.5 -58.5q-133 -79 -190 -79q-8 0 -15 2q-31 6 -34 108q-124 -108 -272 -108h-3q-143 0 -205 88q-69 95 -69 331v7z" />
<glyph unicode="v" horiz-adv-x="827" d="M51 793h158q41 -137 94 -293t119 -332q29 72 62.5 159t68.5 191q37 104 58.5 172t29.5 101h145q-29 -66 -109.5 -262.5t-215.5 -528.5h-86q-72 180 -152 377.5t-172 415.5z" />
<glyph unicode="w" horiz-adv-x="1226" d="M35 793h158q53 -180 97 -332t77 -281q23 63 51 146.5t61 189.5q66 205 80 272v5h146l-3 -2h3v-3v-2q37 -123 172 -614q39 135 83 287.5t93 331.5h145q-27 -70 -96.5 -266.5t-186.5 -524.5h-88q-29 92 -78 239.5t-118 358.5l-228 -598h-86z" />
<glyph unicode="x" horiz-adv-x="804" d="M39 0q45 59 119.5 159.5t179.5 248.5q-61 88 -127 184t-137 201h147q33 -51 80 -124t109 -167q45 70 87 142.5t81 148.5h151q-35 -53 -99.5 -147.5t-158.5 -235.5q94 -142 293 -410h-154q-27 41 -79 121t-130 203q-53 -76 -107 -157t-110 -167h-145z" />
<glyph unicode="y" horiz-adv-x="884" d="M-104 -393l41 100q59 -57 157 -57q31 0 68 10q76 20 153 141q66 96 103 207q-92 199 -180 393.5t-181 391.5h150q39 -86 106.5 -245t165.5 -392q72 174 128.5 331.5t97.5 303.5q71 1 108 1t39 -1l-248 -619q-96 -238 -141 -326q-125 -248 -232 -280q-63 -20 -135 -21 q-131 0 -200 62z" />
<glyph unicode="z" horiz-adv-x="813" d="M92 0v51l445 635h-195q-137 0 -201 -20v127h584v-41l-457 -646h301q18 0 58.5 4.5t103.5 12.5v-123h-639z" />
<glyph unicode="{" horiz-adv-x="675" d="M68 354v117q68 0 111.5 68.5t43.5 173.5v327q0 111 62 183q55 66 133 65h112v-123h-86q-90 0 -90 -159v-322q0 -125 -69 -203q-45 -51 -97 -67l21 -4q47 -10 86 -64q59 -82 59 -211v-319q0 -160 90 -160h86v-125h-112q-74 0 -133 66q-61 74 -62 184v325q0 111 -44 179.5 t-111 68.5z" />
<glyph unicode="|" horiz-adv-x="456" d="M156 -467v1743h143v-1743h-143z" />
<glyph unicode="}" horiz-adv-x="675" d="M137 -344h86q88 0 88 160v319q0 131 62 211q39 53 86 64l20 4q-51 16 -96 67q-72 84 -72 203v322q0 160 -88 159h-86v123h113q39 0 74.5 -17.5t62.5 -50t42 -78.5t15 -102v-327q0 -104 44 -173t112 -69v-117q-68 0 -112 -68.5t-44 -179.5v-325q0 -55 -15 -101.5t-42 -79 t-62.5 -51t-74.5 -18.5h-113v125z" />
<glyph unicode="~" horiz-adv-x="1003" d="M125 383q74 197 178 203q55 2 203 -82q123 -74 174 -78q37 -2 75 44t44 112q23 -10 43 -22.5t43 -24.5q-63 -205 -207 -205q-74 0 -217 86q-115 68 -148 65q-57 -2 -94 -137z" />
<glyph unicode="&#xa2;" horiz-adv-x="847" d="M109 616q4 160 100 273q104 117 262 131h14l27 225h68l-27 -223q66 0 152 -23l-19 -108q-39 10 -75 15t-70 7l-70 -596q27 -6 59 -6q76 0 172 43l35 -104q-27 -10 -46 -19.5t-36 -13.5q-55 -16 -129 -18q-18 -2 -35.5 -1t-33.5 3l-27 -201q-66 -10 -68 0l27 213 q-68 18 -120 57t-88 92.5t-54 118t-18 135.5zM236 610q0 -88 46 -160.5t121 -109.5l70 569q-117 -16 -177 -96t-60 -203z" />
<glyph unicode="&#xa3;" horiz-adv-x="1054" d="M31 553v160q14 -12 176 -19q-76 119 -82 209q-12 199 135 305q127 94 340 95q51 0 207 -39q100 -23 111 -21v-79t2 -126h-78q-12 66 -33 80q-84 55 -231 62q-131 6 -226 -64q-102 -78 -90 -198q6 -76 96 -228q268 8 297 25v-160q-27 14 -231 16q43 -94 33 -178 q-18 -150 -189 -258q100 31 215 31q27 0 51.5 -2t49.5 -6q8 -2 32.5 -6.5t69.5 -14.5q57 -12 94 -12q90 0 172 76l74 -156q-137 -63 -260 -55q-23 2 -62.5 10t-99.5 23q-109 25 -166 24h-19t-20 -2q-84 -12 -227 -55l-80 135q229 131 230 303q0 68 -39 143q-231 -6 -252 -18 z" />
<glyph unicode="&#xa5;" horiz-adv-x="1075" d="M29 1282h237q-4 -61 64 -168l225 -360q2 -2 0 -4q4 8 60.5 98t164.5 264q68 111 72 170h207q-84 -90 -369 -528h230v-99h-293l-15 -20v-88h310v-98h-310q0 -350 25 -449h-180q27 94 24 449h-286v98h286v88l-14 20h-274v99h210q-72 111 -123 189.5t-83 127.5 q-125 180 -168 211z" />
<glyph unicode="&#xa8;" horiz-adv-x="1255" d="M379 1038q0 33 26.5 59.5t61.5 26.5t60.5 -26.5t25.5 -59.5q0 -35 -24.5 -60.5t-61.5 -25.5q-35 0 -61.5 26t-26.5 60zM741 1034q0 35 27 61.5t61 26.5q33 0 58.5 -27.5t25.5 -60.5t-24.5 -59.5t-59.5 -26.5t-61.5 25.5t-26.5 60.5z" />
<glyph unicode="&#xa9;" horiz-adv-x="1499" d="M23 688q0 297 213 514q211 215 509 215q303 0 517 -213q215 -213 215 -514q0 -303 -215 -514q-211 -211 -514 -211q-299 0 -512 213t-213 510zM111 688q0 -264 186 -450t451 -187q266 0 452 187q189 188 189 452q0 262 -191 451q-186 186 -453 186q-260 0 -448 -188 q-186 -186 -186 -451zM393 678q0 186 99 309q104 133 286 133q35 0 117 -20q59 -14 72 -15q0 -16 3 -46.5t7 -73.5h-64q-2 10 -5 21t-11 28q-33 33 -123 28q-129 -2 -213 -116q-74 -102 -74 -250q0 -139 80 -240q86 -111 219 -110q82 0 113 30q12 14 21 47h65 q-4 -47 -7 -78.5t-3 -48.5q-8 2 -72 -14q-14 -4 -37.5 -8t-58.5 -8l-90 4q-150 29 -238 151q-86 119 -86 277z" />
<glyph unicode="&#xab;" horiz-adv-x="1241" d="M272 342v127l439 344v-137l-349 -270l349 -269v-139zM621 342v127l438 344v-137l-348 -270l348 -269v-139z" />
<glyph unicode="&#xad;" horiz-adv-x="641" d="M88 375v110h467v-110h-467z" />
<glyph unicode="&#xae;" horiz-adv-x="1499" d="M23 688q0 297 213 514q211 215 509 215q303 0 517 -213q215 -213 215 -514q0 -303 -215 -514q-211 -211 -514 -211q-299 0 -512 213t-213 510zM111 688q0 -264 186 -450t451 -187q266 0 452 187q189 188 189 452q0 262 -191 451q-186 186 -453 186q-260 0 -448 -188 q-186 -186 -186 -451zM500 283q14 51 14 409q0 369 -14 424h291q82 0 145 -39q100 -57 100 -182q0 -184 -200 -225q161 -51 229 -387h-117q12 68 -41 192q-61 145 -159 176q-37 10 -95 11h-24.5t-26.5 -3q0 -326 14 -376h-116zM604 741q78 -2 124 -1t60 3q66 10 89 23 q67 35 65 129q0 94 -72 125q-20 4 -39.5 7t-39.5 7q-41 6 -185 6z" />
<glyph unicode="&#xb4;" horiz-adv-x="288" d="M37 940l92 356l137 -47l-125 -342z" />
<glyph unicode="&#xb8;" horiz-adv-x="784" d="M236 -328l51 82q27 -12 55 -12q59 0 68 57q10 72 -97 103q-6 0 62 123l104 -2l-45 -82q90 -47 90 -134q1 -38 -22 -79q-49 -92 -172 -84q-68 6 -94 28z" />
<glyph unicode="&#xbb;" horiz-adv-x="1241" d="M291 2v139l350 269l-350 270v137l440 -344v-127zM641 2v139l348 269l-348 270v137l438 -344v-127z" />
<glyph unicode="&#xd3;" horiz-adv-x="1454" d="M125 623q0 287 149 473q162 203 447 202q287 0 450 -202q146 -186 146 -473q0 -264 -164 -451q-172 -193 -432 -192q-270 0 -436 192q-160 180 -160 451zM270 621q0 -205 121 -351q129 -158 330 -157q205 0 330 155q118 144 118 355q0 242 -108 387q-119 156 -342 155 q-209 0 -334 -172q-115 -156 -115 -372zM653 1440l115 348l154 -51l-164 -330z" />
<glyph unicode="&#xf3;" horiz-adv-x="964" d="M68 401q2 174 116 289q117 117 301 117q186 0 299 -113t113 -297q0 -186 -119 -299q-121 -115 -293 -114q-188 0 -307 122q-115 117 -110 295zM190 397q0 -125 86 -213q88 -88 213 -88q123 0 202 82t81 219q0 63 -19.5 118.5t-57.5 96.5t-90 63.5t-116 22.5 q-129 0 -215 -86q-84 -88 -84 -215zM438 961l90 356l140 -47l-125 -342z" />
<glyph unicode="&#x104;" horiz-adv-x="1255" d="M47 0q100 199 510 1296h145q63 -174 120 -324.5t106 -279.5q229 -616 274 -692h-61q-33 -39 -66 -88t-67 -111q-12 -23 -13 -43q0 -35 24.5 -58.5t65.5 -23.5q80 0 138 45l45 -122q-68 -53 -197 -52q-88 0 -142.5 51.5t-49.5 127.5q6 150 133 288q-10 39 -44 139.5 t-94 266.5h-514q-131 -334 -149 -420h-164zM403 545h428q-57 162 -107 315.5t-95 300.5q-29 -88 -84.5 -240.5t-141.5 -375.5z" />
<glyph unicode="&#x105;" horiz-adv-x="839" d="M61 201q0 121 101 194q29 20 82 44t131 50l162 58v37q0 139 -152 129q-37 -2 -78 -15.5t-80 -34t-71.5 -47t-55.5 -55.5v123q106 125 289 129q119 2 189 -51q84 -66 84 -197v-422q0 -47 34 -47q12 0 97 62v-111q-49 -53 -99 -67q-59 -72 -116 -179q-10 -25 -11 -45 q0 -35 24.5 -60.5t65.5 -25.5q78 0 136 45l45 -116q-63 -53 -197 -52q-88 0 -141.5 51.5t-50.5 127.5q6 143 129 282q-23 23 -35 68q-125 -100 -256 -101q-100 0 -164 70q-61 63 -62 156zM180 217q0 -57 36 -95t93 -38q43 0 117 31q72 30 111 65v266q-166 -57 -236 -92 q-121 -66 -121 -137z" />
<glyph unicode="&#x106;" horiz-adv-x="1091" d="M90 631q0 283 148 467q160 201 432 200q84 0 178 -22q92 -20 106 -19q0 -27 4.5 -74.5t12.5 -119.5h-97q-4 29 -24 72q-51 45 -186 43q-203 -6 -324 -172q-109 -156 -109 -377q0 -207 121 -363q131 -166 332 -166q123 0 168 45q20 20 33 72h96q-8 -70 -11 -117t-3 -73 q-12 2 -107 -21q-98 -27 -196 -26q-256 0 -418 202q-156 188 -156 449zM559 1440l115 348l153 -51l-163 -330z" />
<glyph unicode="&#x107;" horiz-adv-x="757" d="M68 401q4 160 100 273q100 113 262 131q117 12 234 -21l-19 -108q-86 23 -153 22q-72 0 -130 -22q-164 -63 -167 -281q0 -121 84 -211q84 -86 210 -88q76 0 173 43l34 -104q-27 -10 -46 -19.5t-36 -13.5q-55 -16 -129 -18q-190 -8 -309 116q-111 121 -108 301zM371 946 l92 357l137 -48l-125 -342z" />
<glyph unicode="&#x118;" horiz-adv-x="1075" d="M158 -12q20 68 20 676q0 563 -20 630q137 -8 360 -12q82 -2 187.5 1t236.5 9q-10 -72 0 -196h-102q-4 33 -4 32q0 6 -13 19q-8 14 -131 14h-379q-4 -203 0 -428q444 0 512 29v-176q-96 31 -512 24q-2 -227 0 -487h432q111 0 129 24q12 18 19 64h100q-10 -152 0 -221 q-39 2 -113.5 4t-189.5 6q-33 -39 -65.5 -88t-67.5 -111q-12 -23 -12 -43q0 -35 24.5 -58.5t65.5 -23.5q80 0 137 45l45 -122q-68 -53 -196 -52q-88 0 -142.5 51.5t-50.5 127.5q6 137 121 274q-125 -4 -391 -12z" />
<glyph unicode="&#x119;" horiz-adv-x="860" d="M68 399q2 172 110 289q106 115 273 119q184 2 280 -115q86 -109 84 -289h-620v-8q-2 -131 92 -219q86 -80 209 -84q123 -2 219 94l59 -108q-70 -39 -129 -60.5t-108 -29.5q-63 -76 -123 -187q-12 -23 -13 -43q0 -35 25 -58.5t66 -23.5q80 0 137 45l45 -122 q-68 -53 -197 -52q-88 0 -142 51.5t-50 127.5q6 129 110 262q-152 23 -243 141q-86 115 -84 270zM215 512h451q-23 184 -217 184q-76 0 -139.5 -49t-94.5 -135z" />
<glyph unicode="&#x141;" horiz-adv-x="1030" d="M-119 522l277 168q0 4 1 51t3 140q2 68 1 123t-3 96q-2 59 -7.5 104t-15.5 78h180q-25 -98 -22 -514l311 176l49 -86l-360 -203l-2 -532h432q111 0 129 24q12 18 18 64h101q-10 -151 0 -221q-131 6 -235.5 9t-186.5 1q-63 -2 -166.5 -5t-247.5 -7q10 39 16.5 185t4.5 405 l-228 -142z" />
<glyph unicode="&#x142;" horiz-adv-x="327" d="M-104 584l210 118v58.5t3 122.5q2 100 0 168q-2 47 -6.5 91t-8.5 87h139q-4 -53 -6 -168t-4 -291l172 98l49 -86l-221 -127q0 -70 1 -171t3 -236q2 -129 3 -190.5t1 -57.5h-133q2 70 4 216t4 374l-161 -92z" />
<glyph unicode="&#x143;" horiz-adv-x="1310" d="M129 1276q195 -2 193 0q90 -123 170.5 -236.5t154.5 -220.5q168 -244 263.5 -396.5t121.5 -215.5v430v320.5t2 56.5q-2 184 -24 262h174q-10 -39 -15.5 -103.5t-7.5 -158.5q2 55 2 -39v-340v-635h-119q-94 135 -178 256t-155 227q-174 256 -277.5 412t-138.5 217v-477 v-371q2 -94 7 -159.5t15 -104.5h-170q10 39 15.5 103.5t7.5 158.5v377v252t-2 133q-10 197 -39 252zM594 1440l115 348l153 -51l-164 -330z" />
<glyph unicode="&#x144;" horiz-adv-x="823" d="M72 0q6 211 6 698v37t-2 60l125 2l-2 -97q125 109 274 109q141 0 205 -88q70 -96 70 -338v-127t2 -137q2 -70 2 -99.5t0 -19.5h-140v116.5t2 114.5q2 82 0 154t-7 124t-15 85q-37 109 -137 111q-104 2 -183 -54l-67 -61v-590h-133zM285 946l92 357l137 -48l-125 -342z " />
<glyph unicode="&#x15a;" horiz-adv-x="1146" d="M70 934q0 182 139 280q123 88 317 84q53 0 207 -38q100 -23 111 -21v-79t2 -126h-78q-12 66 -33 80q-94 63 -231 64q-309 0 -299 -258q6 -154 321 -215q453 -90 439 -383q-8 -199 -203 -285q-145 -68 -367 -57q-84 2 -227 55q-66 23 -92 14q0 55 6 207h78q6 -35 57 -72 q117 -86 260 -86q137 0 238 58q123 70 106 198q-8 80 -78 129q-49 39 -153 70q-45 12 -90 24.5t-90 24.5q-152 47 -226 98q-115 90 -114 234zM401 1440l115 348l154 -51l-164 -330z" />
<glyph unicode="&#x15b;" horiz-adv-x="655" d="M66 590q0 98 77 164q72 59 187 59q33 0 90 -14q39 -10 62.5 -14.5t31.5 -6.5v-137q-92 55 -203 59q-45 0 -84 -24q-43 -31 -45 -76q-4 -72 172 -117q104 -29 168 -86q82 -70 82 -174q0 -146 -143 -209q-86 -39 -205 -30q-35 2 -82 12t-106 29v139q20 -14 69 -31.5 t127 -40.5q10 -2 20.5 -3t20.5 -1q68 0 119 33t57 94q6 78 -112 129q-41 12 -98.5 34.5t-129.5 55.5q-76 49 -75 156zM266 946l92 357l138 -48l-125 -342z" />
<glyph unicode="&#x179;" horiz-adv-x="1198" d="M127 -12v75l762 1082h-467q-119 0 -131 -15q-10 -14 -15 -51h-104q8 125 0 199q131 -6 236.5 -9t187.5 -1q96 -2 230.5 -1t308.5 5l-816 -1155h539q111 0 129 26q16 20 17 62h104q-10 -141 0 -225q-289 16 -453 12q-92 2 -223 1t-305 -5zM561 1440l115 348l153 -51 l-163 -330z" />
<glyph unicode="&#x17a;" horiz-adv-x="804" d="M92 0v51l445 635h-195q-137 0 -201 -20v127h584v-41l-457 -646h301q18 0 58.5 4.5t103.5 12.5v-123h-639zM354 952l92 357l138 -47l-125 -342z" />
<glyph unicode="&#x17b;" horiz-adv-x="1198" d="M127 -12v75l762 1082h-467q-119 0 -131 -15q-10 -14 -15 -51h-104q8 125 0 199q131 -6 236.5 -9t187.5 -1q96 -2 230.5 -1t308.5 5l-816 -1155h539q111 0 129 26q16 20 17 62h104q-10 -141 0 -225q-289 16 -453 12q-92 2 -223 1t-305 -5zM553 1520q0 47 32.5 79.5 t80.5 32.5q47 0 79.5 -32.5t32.5 -79.5t-32.5 -80t-79.5 -33t-80 33t-33 80z" />
<glyph unicode="&#x17c;" horiz-adv-x="813" d="M92 0v51l445 635h-195q-137 0 -201 -20v127h584v-41l-457 -646h301q18 0 58.5 4.5t103.5 12.5v-123h-639zM330 1049q-2 41 25.5 69.5t70.5 28.5q41 0 67.5 -27.5t26.5 -64.5q0 -100 -94 -101q-94 0 -96 95z" />
<glyph unicode="&#x2c6;" horiz-adv-x="833" d="M131 1044l363 254q92 -63 183 -127t183 -127l-88 -83l-283 217q-2 0 -282 -213z" />
<glyph unicode="&#x2da;" horiz-adv-x="737" d="M164 1139q0 39 15.5 74.5t43 62.5t65.5 42t81 15t80.5 -15t65.5 -42t43 -62.5t15 -74.5q0 -41 -15 -76t-43 -61.5t-65.5 -42t-80.5 -15.5t-81 15.5t-65.5 42t-43 61.5t-15.5 76zM236 1137q0 -57 40.5 -95t92.5 -38q53 0 92 38t39 95t-39 95t-92 38t-93 -39t-40 -94z" />
<glyph unicode="&#x2dc;" horiz-adv-x="802" d="M70 1012q33 104 74.5 151t82.5 51q23 0 62 -18t98 -61q49 -37 84 -59.5t53 -22.5q14 0 29.5 13t30 34.5t23.5 50.5t11 61q18 -10 42 -27.5t40 -29.5v-10q-25 -102 -75 -151.5t-103 -49.5q-25 0 -67.5 21.5t-102.5 66.5q-82 61 -116 62q-51 0 -82 -129z" />
<glyph unicode="&#x2000;" horiz-adv-x="894" />
<glyph unicode="&#x2001;" horiz-adv-x="1788" />
<glyph unicode="&#x2002;" horiz-adv-x="894" />
<glyph unicode="&#x2003;" horiz-adv-x="1788" />
<glyph unicode="&#x2004;" horiz-adv-x="596" />
<glyph unicode="&#x2005;" horiz-adv-x="447" />
<glyph unicode="&#x2006;" horiz-adv-x="298" />
<glyph unicode="&#x2007;" horiz-adv-x="298" />
<glyph unicode="&#x2008;" horiz-adv-x="223" />
<glyph unicode="&#x2009;" horiz-adv-x="357" />
<glyph unicode="&#x200a;" horiz-adv-x="99" />
<glyph unicode="&#x2010;" horiz-adv-x="641" d="M88 375v110h467v-110h-467z" />
<glyph unicode="&#x2011;" horiz-adv-x="641" d="M88 375v110h467v-110h-467z" />
<glyph unicode="&#x2012;" horiz-adv-x="641" d="M88 375v110h467v-110h-467z" />
<glyph unicode="&#x2013;" horiz-adv-x="1112" d="M0 432v127h1112v-127h-1112z" />
<glyph unicode="&#x2014;" horiz-adv-x="1482" d="M0 434v125h1483v-125h-1483z" />
<glyph unicode="&#x2018;" horiz-adv-x="458" d="M121 1249l139 47l90 -356l-104 -33z" />
<glyph unicode="&#x2019;" horiz-adv-x="456" d="M156 940l90 356l139 -47l-125 -342z" />
<glyph unicode="&#x201a;" horiz-adv-x="456" d="M102 -223l91 356l139 -47l-125 -342z" />
<glyph unicode="&#x201c;" horiz-adv-x="727" d="M121 1249l139 47l90 -356l-104 -33zM387 1249l139 47l90 -356l-104 -33z" />
<glyph unicode="&#x201d;" horiz-adv-x="688" d="M121 940l90 356l139 -47l-125 -342zM387 940l90 356l139 -47l-124 -342z" />
<glyph unicode="&#x201e;" horiz-adv-x="688" d="M63 -205l91 357l139 -48l-125 -342zM330 -205l90 357l139 -48l-125 -342z" />
<glyph unicode="&#x2026;" horiz-adv-x="1806" d="M209 98q0 53 38 91t93 38q53 0 92 -38t39 -91q0 -55 -38 -93t-93 -38t-93 38t-38 93zM834 98q0 53 37.5 91t93.5 38q53 0 92 -38t39 -91q0 -55 -38 -93t-93 -38t-93 38t-38 93zM1438 98q0 53 37.5 91t93.5 38q53 0 92 -38t39 -91q0 -55 -38 -93t-93 -38t-93 38t-38 93z " />
<glyph unicode="&#x202f;" horiz-adv-x="357" />
<glyph unicode="&#x2039;" horiz-adv-x="534" d="M47 346v129l438 344v-141l-333 -268l333 -267v-141z" />
<glyph unicode="&#x203a;" horiz-adv-x="534" d="M47 2v141l334 267l-334 268v141l438 -344v-129z" />
<glyph unicode="&#x205f;" horiz-adv-x="447" />
<glyph unicode="&#x20ac;" horiz-adv-x="1523" d="M100 496l47 108h134q-2 12 -2 26.5v28.5v28.5t2 27.5h-181l47 110h150q41 176 170 305q186 190 471 191q281 0 475 -197l-47 -110q-182 197 -428 196q-231 0 -391 -159q-49 -49 -83 -106.5t-52 -119.5h874l-45 -110h-852q-2 -12 -2 -27.5v-28.5v-28.5t2 -26.5h805 l-47 -108h-737q37 -127 137 -228q162 -158 391 -157q250 0 428 200v-161q-170 -150 -428 -150q-283 0 -471 188q-131 133 -170 308h-197z" />
<glyph unicode="&#x2122;" horiz-adv-x="1701" d="M53 1145q6 82 0 131h688q-4 -43 0 -133h-61q-4 37 -8 47q-14 14 -78 14h-158v-327q0 -326 13 -371h-107q14 49 14 371v327h-155q-31 0 -48.5 -3t-25.5 -10t-10 -18.5t-2 -27.5h-62zM852 1276h119l264 -504l270 504h123q-27 -47 -26 -385q0 -334 14 -383h-105 q14 49 15 381v301q-27 -111 -289 -569q-39 66 -71.5 124t-61.5 111q-135 252 -154 328v-295q0 -336 13 -381h-99q12 51 13 383q0 336 -25 385z" />
<glyph unicode="&#x25fc;" horiz-adv-x="788" d="M0 0v788h788v-788h-788z" />
</font>
</defs>
</svg>
